<?xml version="1.0" standalone="no"?>
<svg xmlns:xlink="http://www.w3.org/1999/xlink" id="wave" style="transform:rotate(0deg); transition: 0.3s" viewBox="0 0 1440 310" version="1.1" xmlns="http://www.w3.org/2000/svg"><defs><linearGradient id="sw-gradient-0" x1="0" x2="0" y1="1" y2="0"><stop stop-color="rgba(114, 41, 115, 1)" offset="0%"/><stop stop-color="rgba(250, 116, 28, 1)" offset="100%"/></linearGradient></defs><path style="transform:translate(0, 0px); opacity:1" fill="url(#sw-gradient-0)" d="M0,186L13.3,196.3C26.7,207,53,227,80,206.7C106.7,186,133,124,160,103.3C186.7,83,213,103,240,118.8C266.7,134,293,145,320,124C346.7,103,373,52,400,72.3C426.7,93,453,186,480,227.3C506.7,269,533,258,560,258.3C586.7,258,613,269,640,242.8C666.7,217,693,155,720,134.3C746.7,114,773,134,800,149.8C826.7,165,853,176,880,186C906.7,196,933,207,960,186C986.7,165,1013,114,1040,103.3C1066.7,93,1093,124,1120,155C1146.7,186,1173,217,1200,201.5C1226.7,186,1253,124,1280,87.8C1306.7,52,1333,41,1360,46.5C1386.7,52,1413,72,1440,108.5C1466.7,145,1493,196,1520,201.5C1546.7,207,1573,165,1600,139.5C1626.7,114,1653,103,1680,129.2C1706.7,155,1733,217,1760,217C1786.7,217,1813,155,1840,129.2C1866.7,103,1893,114,1907,118.8L1920,124L1920,310L1906.7,310C1893.3,310,1867,310,1840,310C1813.3,310,1787,310,1760,310C1733.3,310,1707,310,1680,310C1653.3,310,1627,310,1600,310C1573.3,310,1547,310,1520,310C1493.3,310,1467,310,1440,310C1413.3,310,1387,310,1360,310C1333.3,310,1307,310,1280,310C1253.3,310,1227,310,1200,310C1173.3,310,1147,310,1120,310C1093.3,310,1067,310,1040,310C1013.3,310,987,310,960,310C933.3,310,907,310,880,310C853.3,310,827,310,800,310C773.3,310,747,310,720,310C693.3,310,667,310,640,310C613.3,310,587,310,560,310C533.3,310,507,310,480,310C453.3,310,427,310,400,310C373.3,310,347,310,320,310C293.3,310,267,310,240,310C213.3,310,187,310,160,310C133.3,310,107,310,80,310C53.3,310,27,310,13,310L0,310Z"/><defs><linearGradient id="sw-gradient-1" x1="0" x2="0" y1="1" y2="0"><stop stop-color="rgba(114, 41, 115, 1)" offset="0%"/><stop stop-color="rgba(250, 116, 28, 1)" offset="100%"/></linearGradient></defs><path style="transform:translate(0, 50px); opacity:0.9" fill="url(#sw-gradient-1)" d="M0,248L13.3,242.8C26.7,238,53,227,80,232.5C106.7,238,133,258,160,258.3C186.7,258,213,238,240,227.3C266.7,217,293,217,320,211.8C346.7,207,373,196,400,165.3C426.7,134,453,83,480,82.7C506.7,83,533,134,560,134.3C586.7,134,613,83,640,56.8C666.7,31,693,31,720,31C746.7,31,773,31,800,56.8C826.7,83,853,134,880,139.5C906.7,145,933,103,960,93C986.7,83,1013,103,1040,118.8C1066.7,134,1093,145,1120,129.2C1146.7,114,1173,72,1200,67.2C1226.7,62,1253,93,1280,134.3C1306.7,176,1333,227,1360,227.3C1386.7,227,1413,176,1440,160.2C1466.7,145,1493,165,1520,191.2C1546.7,217,1573,248,1600,232.5C1626.7,217,1653,155,1680,139.5C1706.7,124,1733,155,1760,180.8C1786.7,207,1813,227,1840,211.8C1866.7,196,1893,145,1907,118.8L1920,93L1920,310L1906.7,310C1893.3,310,1867,310,1840,310C1813.3,310,1787,310,1760,310C1733.3,310,1707,310,1680,310C1653.3,310,1627,310,1600,310C1573.3,310,1547,310,1520,310C1493.3,310,1467,310,1440,310C1413.3,310,1387,310,1360,310C1333.3,310,1307,310,1280,310C1253.3,310,1227,310,1200,310C1173.3,310,1147,310,1120,310C1093.3,310,1067,310,1040,310C1013.3,310,987,310,960,310C933.3,310,907,310,880,310C853.3,310,827,310,800,310C773.3,310,747,310,720,310C693.3,310,667,310,640,310C613.3,310,587,310,560,310C533.3,310,507,310,480,310C453.3,310,427,310,400,310C373.3,310,347,310,320,310C293.3,310,267,310,240,310C213.3,310,187,310,160,310C133.3,310,107,310,80,310C53.3,310,27,310,13,310L0,310Z"/><defs><linearGradient id="sw-gradient-2" x1="0" x2="0" y1="1" y2="0"><stop stop-color="rgba(114, 41, 115, 1)" offset="0%"/><stop stop-color="rgba(250, 116, 28, 1)" offset="100%"/></linearGradient></defs><path style="transform:translate(0, 100px); opacity:0.8" fill="url(#sw-gradient-2)" d="M0,62L13.3,56.8C26.7,52,53,41,80,51.7C106.7,62,133,93,160,118.8C186.7,145,213,165,240,144.7C266.7,124,293,62,320,51.7C346.7,41,373,83,400,129.2C426.7,176,453,227,480,242.8C506.7,258,533,238,560,227.3C586.7,217,613,217,640,227.3C666.7,238,693,258,720,253.2C746.7,248,773,217,800,180.8C826.7,145,853,103,880,98.2C906.7,93,933,124,960,134.3C986.7,145,1013,134,1040,129.2C1066.7,124,1093,124,1120,134.3C1146.7,145,1173,165,1200,144.7C1226.7,124,1253,62,1280,67.2C1306.7,72,1333,145,1360,170.5C1386.7,196,1413,176,1440,165.3C1466.7,155,1493,155,1520,149.8C1546.7,145,1573,134,1600,139.5C1626.7,145,1653,165,1680,175.7C1706.7,186,1733,186,1760,196.3C1786.7,207,1813,227,1840,201.5C1866.7,176,1893,103,1907,67.2L1920,31L1920,310L1906.7,310C1893.3,310,1867,310,1840,310C1813.3,310,1787,310,1760,310C1733.3,310,1707,310,1680,310C1653.3,310,1627,310,1600,310C1573.3,310,1547,310,1520,310C1493.3,310,1467,310,1440,310C1413.3,310,1387,310,1360,310C1333.3,310,1307,310,1280,310C1253.3,310,1227,310,1200,310C1173.3,310,1147,310,1120,310C1093.3,310,1067,310,1040,310C1013.3,310,987,310,960,310C933.3,310,907,310,880,310C853.3,310,827,310,800,310C773.3,310,747,310,720,310C693.3,310,667,310,640,310C613.3,310,587,310,560,310C533.3,310,507,310,480,310C453.3,310,427,310,400,310C373.3,310,347,310,320,310C293.3,310,267,310,240,310C213.3,310,187,310,160,310C133.3,310,107,310,80,310C53.3,310,27,310,13,310L0,310Z"/></svg>